<svg width="23" height="30" viewBox="0 0 23 30" fill="none" xmlns="http://www.w3.org/2000/svg">
<path d="M11.043 7.26245C10.2393 7.26245 9.45361 7.50095 8.78534 7.94779C8.11707 8.39463 7.59621 9.02974 7.28864 9.77281C6.98107 10.5159 6.90059 11.3335 7.05739 12.1224C7.21419 12.9112 7.60122 13.6358 8.16954 14.2045C8.73786 14.7732 9.46194 15.1605 10.2502 15.3174C11.0385 15.4744 11.8556 15.3938 12.5981 15.086C13.3407 14.7782 13.9753 14.257 14.4219 13.5883C14.8684 12.9195 15.1067 12.1333 15.1067 11.329C15.1055 10.2509 14.677 9.21724 13.9151 8.45488C13.1533 7.69251 12.1204 7.26368 11.043 7.26245ZM11.043 13.3623C10.6412 13.3623 10.2483 13.2431 9.91418 13.0196C9.58004 12.7962 9.31961 12.4787 9.16583 12.1071C9.01204 11.7356 8.9718 11.3268 9.0502 10.9323C9.1286 10.5379 9.32212 10.1756 9.60628 9.89127C9.89044 9.60691 10.2525 9.41326 10.6466 9.3348C11.0408 9.25635 11.4493 9.29662 11.8206 9.45051C12.1918 9.6044 12.5092 9.86501 12.7324 10.1994C12.9557 10.5338 13.0749 10.9269 13.0749 11.329C13.0742 11.8681 12.86 12.3849 12.4791 12.7661C12.0982 13.1473 11.5817 13.3617 11.043 13.3623Z" fill="#F1F0FF"/>
<path d="M18.851 3.50825C16.9203 1.57666 14.343 0.429213 11.6166 0.287375C8.89018 0.145536 6.20789 1.01936 4.08742 2.74019C1.96696 4.46103 0.558632 6.90689 0.134261 9.60571C-0.290111 12.3045 0.299552 15.065 1.78945 17.3543L9.46648 29.1482C9.63732 29.4106 9.87091 29.6263 10.1461 29.7755C10.4212 29.9248 10.7293 30.0029 11.0423 30.0029C11.3553 30.0029 11.6633 29.9248 11.9385 29.7755C12.2136 29.6263 12.4472 29.4106 12.6181 29.1482L20.2954 17.3543C21.6778 15.2306 22.2888 12.6959 22.0258 10.1751C21.7628 7.65424 20.642 5.30045 18.851 3.50825ZM18.5929 16.2445L11.0423 27.8437L3.49163 16.2445C1.1804 12.6939 1.67611 7.9424 4.67029 4.94597C5.50707 4.10858 6.50048 3.44433 7.59379 2.99113C8.6871 2.53794 9.85891 2.30469 11.0423 2.30469C12.2257 2.30469 13.3975 2.53794 14.4908 2.99113C15.5841 3.44433 16.5775 4.10858 17.4143 4.94597C20.4085 7.9424 20.9042 12.6939 18.5929 16.2445Z" fill="#F1F0FF"/>
</svg>
