<svg xmlns="http://www.w3.org/2000/svg" width="23" height="30" fill="none"><path fill="#F1F0FF" d="M11.043 7.262a4.06 4.06 0 0 0-3.754 2.51 4.07 4.07 0 0 0 2.961 5.545 4.06 4.06 0 0 0 4.172-1.729 4.069 4.069 0 0 0-3.379-6.326m0 6.1a2.03 2.03 0 0 1-1.993-2.43 2.034 2.034 0 0 1 2.77-1.481 2.032 2.032 0 0 1 .66 3.315c-.382.381-.898.596-1.437.596"/><path fill="#F1F0FF" d="M18.851 3.508A11.04 11.04 0 0 0 .134 9.606a11.06 11.06 0 0 0 1.655 7.748l7.677 11.794a1.88 1.88 0 0 0 3.152 0l7.677-11.794a11.06 11.06 0 0 0-1.444-13.846m-.258 12.736-7.55 11.6-7.551-11.6C1.18 12.694 1.676 7.942 4.67 4.946a9.01 9.01 0 0 1 9.82-1.955 9 9 0 0 1 2.924 1.955c2.994 2.996 3.49 7.748 1.179 11.299"/></svg>