<svg xmlns="http://www.w3.org/2000/svg" width="820" height="535" fill="none"><path fill="#FFFFFA" fill-opacity=".85" d="M0 493.719h44.907V535H0z"/><mask id="a" fill="#fff"><path d="M44.907 493.719h44.907V535H44.907z"/></mask><path fill="#FFFFFA" fill-opacity=".85" d="M44.907 493.719h44.907V535H44.907z"/><path fill="#010101" d="M45.907 535v-41.281h-2V535z" mask="url(#a)"/><mask id="b" fill="#fff"><path d="M89.814 493.719h44.907V535H89.814z"/></mask><path fill="#FFFFFA" fill-opacity=".85" d="M89.814 493.719h44.907V535H89.814z"/><path fill="#010101" d="M90.814 535v-41.281h-2V535z" mask="url(#b)"/><mask id="c" fill="#fff"><path d="M134.721 493.719h44.907V535h-44.907z"/></mask><path fill="#FFFFFA" fill-opacity=".85" d="M134.721 493.719h44.907V535h-44.907z"/><path fill="#010101" d="M135.721 535v-41.281h-2V535z" mask="url(#c)"/><mask id="d" fill="#fff"><path d="M179.628 493.719h44.906V535h-44.906z"/></mask><path fill="#FFFFFA" fill-opacity=".85" d="M179.628 493.719h44.906V535h-44.906z"/><path fill="#010101" d="M180.628 535v-41.281h-2V535z" mask="url(#d)"/><mask id="e" fill="#fff"><path d="M224.535 493.719h44.906V535h-44.906z"/></mask><path fill="#FFFFFA" fill-opacity=".85" d="M224.535 493.719h44.906V535h-44.906z"/><path fill="#010101" d="M225.535 535v-41.281h-2V535z" mask="url(#e)"/><mask id="f" fill="#fff"><path d="M269.441 493.719h44.907V535h-44.907z"/></mask><path fill="#FFFFFA" fill-opacity=".85" d="M269.441 493.719h44.907V535h-44.907z"/><path fill="#010101" d="M270.441 535v-41.281h-2V535z" mask="url(#f)"/><mask id="g" fill="#fff"><path d="M314.348 493.719h44.907V535h-44.907z"/></mask><path fill="#FFFFFA" fill-opacity=".85" d="M314.348 493.719h44.907V535h-44.907z"/><path fill="#010101" d="M315.348 535v-41.281h-2V535z" mask="url(#g)"/><path fill="url(#h)" d="M460.745 493.719h44.907V535h-44.907z"/><mask id="j" fill="#fff"><path d="M505.652 493.719h44.907V535h-44.907z"/></mask><path fill="url(#i)" d="M505.652 493.719h44.907V535h-44.907z"/><path fill="#010101" d="M506.652 535v-41.281h-2V535z" mask="url(#j)"/><mask id="l" fill="#fff"><path d="M550.559 493.719h44.906V535h-44.906z"/></mask><path fill="url(#k)" d="M550.559 493.719h44.906V535h-44.906z"/><path fill="#010101" d="M551.559 535v-41.281h-2V535z" mask="url(#l)"/><mask id="n" fill="#fff"><path d="M595.465 493.719h44.907V535h-44.907z"/></mask><path fill="url(#m)" d="M595.465 493.719h44.907V535h-44.907z"/><path fill="#010101" d="M596.465 535v-41.281h-2V535z" mask="url(#n)"/><mask id="p" fill="#fff"><path d="M640.372 493.719h44.907V535h-44.907z"/></mask><path fill="url(#o)" d="M640.372 493.719h44.907V535h-44.907z"/><path fill="#010101" d="M641.372 535v-41.281h-2V535z" mask="url(#p)"/><mask id="r" fill="#fff"><path d="M685.279 493.719h44.907V535h-44.907z"/></mask><path fill="url(#q)" d="M685.279 493.719h44.907V535h-44.907z"/><path fill="#010101" d="M686.279 535v-41.281h-2V535z" mask="url(#r)"/><mask id="t" fill="#fff"><path d="M730.186 493.719h44.907V535h-44.907z"/></mask><path fill="url(#s)" d="M730.186 493.719h44.907V535h-44.907z"/><path fill="#010101" d="M731.186 535v-41.281h-2V535z" mask="url(#t)"/><mask id="v" fill="#fff"><path d="M775.093 493.719H820V535h-44.907z"/></mask><path fill="url(#u)" d="M775.093 493.719H820V535h-44.907z"/><path fill="#010101" d="M776.093 535v-41.281h-2V535z" mask="url(#v)"/><path fill="#FFFFFA" fill-opacity=".85" d="M526.309 350.059h44.907v41.282h-44.907z"/><mask id="w" fill="#fff"><path d="M571.216 350.059h44.907v41.282h-44.907z"/></mask><path fill="#FFFFFA" fill-opacity=".85" d="M571.216 350.059h44.907v41.282h-44.907z"/><path fill="#010101" d="M572.216 391.341v-41.282h-2v41.282z" mask="url(#w)"/><mask id="x" fill="#fff"><path d="M616.123 350.059h44.907v41.282h-44.907z"/></mask><path fill="#FFFFFA" fill-opacity=".85" d="M616.123 350.059h44.907v41.282h-44.907z"/><path fill="#010101" d="M617.123 391.341v-41.282h-2v41.282z" mask="url(#x)"/><mask id="y" fill="#fff"><path d="M661.03 350.059h44.906v41.282H661.03z"/></mask><path fill="#FFFFFA" fill-opacity=".85" d="M661.03 350.059h44.906v41.282H661.03z"/><path fill="#010101" d="M662.03 391.341v-41.282h-2v41.282z" mask="url(#y)"/><path fill="#FFFFFA" fill-opacity=".85" d="M168.85 205.575h44.907v41.281H168.85z"/><mask id="z" fill="#fff"><path d="M213.757 205.575h44.907v41.281h-44.907z"/></mask><path fill="#FFFFFA" fill-opacity=".85" d="M213.757 205.575h44.907v41.281h-44.907z"/><path fill="#010101" d="M214.757 246.856v-41.281h-2v41.281z" mask="url(#z)"/><path fill="url(#A)" d="M572.114 205.575h44.907v41.281h-44.907z"/><mask id="C" fill="#fff"><path d="M617.021 205.575h44.907v41.281h-44.907z"/></mask><path fill="url(#B)" d="M617.021 205.575h44.907v41.281h-44.907z"/><path fill="#010101" d="M618.021 246.856v-41.281h-2v41.281z" mask="url(#C)"/><path fill="url(#D)" d="M191.303 61.916h44.907v41.281h-44.907z"/><path fill="#FFFFFA" d="M594.567 61.916h44.907v41.281h-44.907z"/><path fill="url(#E)" d="M123.045 350.059h44.907v41.282h-44.907z"/><mask id="G" fill="#fff"><path d="M167.952 350.059h44.907v41.282h-44.907z"/></mask><path fill="url(#F)" d="M167.952 350.059h44.907v41.282h-44.907z"/><path fill="#010101" d="M168.952 391.341v-41.282h-2v41.282z" mask="url(#G)"/><mask id="I" fill="#fff"><path d="M212.859 350.059h44.907v41.282h-44.907z"/></mask><path fill="url(#H)" d="M212.859 350.059h44.907v41.282h-44.907z"/><path fill="#010101" d="M213.859 391.341v-41.282h-2v41.282z" mask="url(#I)"/><mask id="K" fill="#fff"><path d="M257.766 350.059h44.907v41.282h-44.907z"/></mask><path fill="url(#J)" d="M257.766 350.059h44.907v41.282h-44.907z"/><path fill="#010101" d="M258.766 391.341v-41.282h-2v41.282z" mask="url(#K)"/><path fill="url(#L)" d="M213.757 431.797h402.366v.826H213.757z"/><path fill="url(#M)" d="M214.655 143.653h402.366v.826H214.655z"/><path fill="url(#N)" d="M214.655 287.312h402.366v.826H214.655z"/><path fill="url(#O)" d="M415.838 514.359h44.907v.826h-44.907z"/><path fill="url(#P)" d="M0 0h112.267v.826H0z" transform="matrix(-1 0 0 1 414.94 369.875)"/><path fill="url(#Q)" d="M0 0h178.729v.826H0z" transform="matrix(-1 0 0 1 414.94 81.73)"/><path fill="url(#R)" d="M0 0h157.174v.826H0z" transform="matrix(-1 0 0 1 572.114 226.215)"/><path fill="url(#S)" d="M414.94 515.185h82.563v.898H414.94z" transform="rotate(-90 414.94 515.185)"/><path fill="url(#T)" d="M414.94 226.215h82.563v.898H414.94z" transform="rotate(-90 414.94 226.215)"/><path fill="url(#U)" d="M0 0h82.563v.898H0z" transform="matrix(0 -1 -1 0 415.838 370.7)"/><path fill="url(#V)" d="M0 0h82.563v.898H0z" transform="matrix(0 -1 -1 0 415.838 82.556)"/><path fill="url(#W)" d="M616.123 432.622h41.281v.898h-41.281z" transform="rotate(-90 616.123 432.622)"/><path fill="url(#X)" d="M617.021 144.478h41.281v.898h-41.281z" transform="rotate(-90 617.021 144.478)"/><path fill="url(#Y)" d="M617.021 288.137h41.281v.898h-41.281z" transform="rotate(-90 617.021 288.137)"/><path fill="url(#Z)" d="M212.859 432.622h41.281v.898h-41.281z" transform="rotate(-90 212.859 432.622)"/><path fill="url(#aa)" d="M213.757 144.478h41.281v.898h-41.281z" transform="rotate(-90 213.757 144.478)"/><path fill="url(#ab)" d="M213.757 288.137h41.281v.898h-41.281z" transform="rotate(-90 213.757 288.137)"/><defs><linearGradient id="h" x1="483.214" x2="481.843" y1="493.719" y2="533.405" gradientUnits="userSpaceOnUse"><stop offset=".1" stop-color="#E9C156"/><stop offset=".3" stop-color="#FFA"/><stop offset=".6" stop-color="#E1AB39"/><stop offset="1" stop-color="#E9C156"/></linearGradient><linearGradient id="i" x1="528.12" x2="526.749" y1="493.719" y2="533.405" gradientUnits="userSpaceOnUse"><stop offset=".1" stop-color="#E9C156"/><stop offset=".3" stop-color="#FFA"/><stop offset=".6" stop-color="#E1AB39"/><stop offset="1" stop-color="#E9C156"/></linearGradient><linearGradient id="k" x1="573.027" x2="571.656" y1="493.719" y2="533.405" gradientUnits="userSpaceOnUse"><stop offset=".1" stop-color="#E9C156"/><stop offset=".3" stop-color="#FFA"/><stop offset=".6" stop-color="#E1AB39"/><stop offset="1" stop-color="#E9C156"/></linearGradient><linearGradient id="m" x1="617.934" x2="616.563" y1="493.719" y2="533.405" gradientUnits="userSpaceOnUse"><stop offset=".1" stop-color="#E9C156"/><stop offset=".3" stop-color="#FFA"/><stop offset=".6" stop-color="#E1AB39"/><stop offset="1" stop-color="#E9C156"/></linearGradient><linearGradient id="o" x1="662.841" x2="661.47" y1="493.719" y2="533.405" gradientUnits="userSpaceOnUse"><stop offset=".1" stop-color="#E9C156"/><stop offset=".3" stop-color="#FFA"/><stop offset=".6" stop-color="#E1AB39"/><stop offset="1" stop-color="#E9C156"/></linearGradient><linearGradient id="q" x1="707.748" x2="706.377" y1="493.719" y2="533.405" gradientUnits="userSpaceOnUse"><stop offset=".1" stop-color="#E9C156"/><stop offset=".3" stop-color="#FFA"/><stop offset=".6" stop-color="#E1AB39"/><stop offset="1" stop-color="#E9C156"/></linearGradient><linearGradient id="s" x1="752.655" x2="751.284" y1="493.719" y2="533.405" gradientUnits="userSpaceOnUse"><stop offset=".1" stop-color="#E9C156"/><stop offset=".3" stop-color="#FFA"/><stop offset=".6" stop-color="#E1AB39"/><stop offset="1" stop-color="#E9C156"/></linearGradient><linearGradient id="u" x1="797.562" x2="796.191" y1="493.719" y2="533.405" gradientUnits="userSpaceOnUse"><stop offset=".1" stop-color="#E9C156"/><stop offset=".3" stop-color="#FFA"/><stop offset=".6" stop-color="#E1AB39"/><stop offset="1" stop-color="#E9C156"/></linearGradient><linearGradient id="A" x1="594.583" x2="593.212" y1="205.575" y2="245.261" gradientUnits="userSpaceOnUse"><stop offset=".1" stop-color="#E9C156"/><stop offset=".3" stop-color="#FFA"/><stop offset=".6" stop-color="#E1AB39"/><stop offset="1" stop-color="#E9C156"/></linearGradient><linearGradient id="B" x1="639.489" x2="638.118" y1="205.575" y2="245.261" gradientUnits="userSpaceOnUse"><stop offset=".1" stop-color="#E9C156"/><stop offset=".3" stop-color="#FFA"/><stop offset=".6" stop-color="#E1AB39"/><stop offset="1" stop-color="#E9C156"/></linearGradient><linearGradient id="D" x1="213.772" x2="212.401" y1="61.916" y2="101.601" gradientUnits="userSpaceOnUse"><stop offset=".1" stop-color="#E9C156"/><stop offset=".3" stop-color="#FFA"/><stop offset=".6" stop-color="#E1AB39"/><stop offset="1" stop-color="#E9C156"/></linearGradient><linearGradient id="E" x1="145.514" x2="144.143" y1="350.059" y2="389.745" gradientUnits="userSpaceOnUse"><stop offset=".1" stop-color="#E9C156"/><stop offset=".3" stop-color="#FFA"/><stop offset=".6" stop-color="#E1AB39"/><stop offset="1" stop-color="#E9C156"/></linearGradient><linearGradient id="F" x1="190.42" x2="189.049" y1="350.059" y2="389.745" gradientUnits="userSpaceOnUse"><stop offset=".1" stop-color="#E9C156"/><stop offset=".3" stop-color="#FFA"/><stop offset=".6" stop-color="#E1AB39"/><stop offset="1" stop-color="#E9C156"/></linearGradient><linearGradient id="H" x1="235.327" x2="233.956" y1="350.059" y2="389.745" gradientUnits="userSpaceOnUse"><stop offset=".1" stop-color="#E9C156"/><stop offset=".3" stop-color="#FFA"/><stop offset=".6" stop-color="#E1AB39"/><stop offset="1" stop-color="#E9C156"/></linearGradient><linearGradient id="J" x1="280.234" x2="278.863" y1="350.059" y2="389.745" gradientUnits="userSpaceOnUse"><stop offset=".1" stop-color="#E9C156"/><stop offset=".3" stop-color="#FFA"/><stop offset=".6" stop-color="#E1AB39"/><stop offset="1" stop-color="#E9C156"/></linearGradient><linearGradient id="L" x1="415.076" x2="415.076" y1="431.797" y2="432.591" gradientUnits="userSpaceOnUse"><stop offset=".1" stop-color="#E9C156"/><stop offset=".3" stop-color="#FFA"/><stop offset=".6" stop-color="#E1AB39"/><stop offset="1" stop-color="#E9C156"/></linearGradient><linearGradient id="M" x1="415.974" x2="415.974" y1="143.653" y2="144.447" gradientUnits="userSpaceOnUse"><stop offset=".1" stop-color="#E9C156"/><stop offset=".3" stop-color="#FFA"/><stop offset=".6" stop-color="#E1AB39"/><stop offset="1" stop-color="#E9C156"/></linearGradient><linearGradient id="N" x1="415.974" x2="415.974" y1="287.312" y2="288.106" gradientUnits="userSpaceOnUse"><stop offset=".1" stop-color="#E9C156"/><stop offset=".3" stop-color="#FFA"/><stop offset=".6" stop-color="#E1AB39"/><stop offset="1" stop-color="#E9C156"/></linearGradient><linearGradient id="O" x1="438.307" x2="438.306" y1="514.359" y2="515.154" gradientUnits="userSpaceOnUse"><stop offset=".1" stop-color="#E9C156"/><stop offset=".3" stop-color="#FFA"/><stop offset=".6" stop-color="#E1AB39"/><stop offset="1" stop-color="#E9C156"/></linearGradient><linearGradient id="P" x1="56.172" x2="56.171" y1="0" y2=".795" gradientUnits="userSpaceOnUse"><stop offset=".1" stop-color="#E9C156"/><stop offset=".3" stop-color="#FFA"/><stop offset=".6" stop-color="#E1AB39"/><stop offset="1" stop-color="#E9C156"/></linearGradient><linearGradient id="Q" x1="89.425" x2="89.425" y1="0" y2=".795" gradientUnits="userSpaceOnUse"><stop offset=".1" stop-color="#E9C156"/><stop offset=".3" stop-color="#FFA"/><stop offset=".6" stop-color="#E1AB39"/><stop offset="1" stop-color="#E9C156"/></linearGradient><linearGradient id="R" x1="78.64" x2="78.64" y1="0" y2=".795" gradientUnits="userSpaceOnUse"><stop offset=".1" stop-color="#E9C156"/><stop offset=".3" stop-color="#FFA"/><stop offset=".6" stop-color="#E1AB39"/><stop offset="1" stop-color="#E9C156"/></linearGradient><linearGradient id="S" x1="456.249" x2="456.249" y1="515.185" y2="516.049" gradientUnits="userSpaceOnUse"><stop offset=".1" stop-color="#E9C156"/><stop offset=".3" stop-color="#FFA"/><stop offset=".6" stop-color="#E1AB39"/><stop offset="1" stop-color="#E9C156"/></linearGradient><linearGradient id="T" x1="456.249" x2="456.249" y1="226.215" y2="227.08" gradientUnits="userSpaceOnUse"><stop offset=".1" stop-color="#E9C156"/><stop offset=".3" stop-color="#FFA"/><stop offset=".6" stop-color="#E1AB39"/><stop offset="1" stop-color="#E9C156"/></linearGradient><linearGradient id="U" x1="41.309" x2="41.309" y1="0" y2=".864" gradientUnits="userSpaceOnUse"><stop offset=".1" stop-color="#E9C156"/><stop offset=".3" stop-color="#FFA"/><stop offset=".6" stop-color="#E1AB39"/><stop offset="1" stop-color="#E9C156"/></linearGradient><linearGradient id="V" x1="41.309" x2="41.309" y1="0" y2=".864" gradientUnits="userSpaceOnUse"><stop offset=".1" stop-color="#E9C156"/><stop offset=".3" stop-color="#FFA"/><stop offset=".6" stop-color="#E1AB39"/><stop offset="1" stop-color="#E9C156"/></linearGradient><linearGradient id="W" x1="636.777" x2="636.777" y1="432.622" y2="433.487" gradientUnits="userSpaceOnUse"><stop offset=".1" stop-color="#E9C156"/><stop offset=".3" stop-color="#FFA"/><stop offset=".6" stop-color="#E1AB39"/><stop offset="1" stop-color="#E9C156"/></linearGradient><linearGradient id="X" x1="637.675" x2="637.675" y1="144.478" y2="145.343" gradientUnits="userSpaceOnUse"><stop offset=".1" stop-color="#E9C156"/><stop offset=".3" stop-color="#FFA"/><stop offset=".6" stop-color="#E1AB39"/><stop offset="1" stop-color="#E9C156"/></linearGradient><linearGradient id="Y" x1="637.675" x2="637.675" y1="288.137" y2="289.002" gradientUnits="userSpaceOnUse"><stop offset=".1" stop-color="#E9C156"/><stop offset=".3" stop-color="#FFA"/><stop offset=".6" stop-color="#E1AB39"/><stop offset="1" stop-color="#E9C156"/></linearGradient><linearGradient id="Z" x1="233.513" x2="233.513" y1="432.622" y2="433.487" gradientUnits="userSpaceOnUse"><stop offset=".1" stop-color="#E9C156"/><stop offset=".3" stop-color="#FFA"/><stop offset=".6" stop-color="#E1AB39"/><stop offset="1" stop-color="#E9C156"/></linearGradient><linearGradient id="aa" x1="234.411" x2="234.411" y1="144.478" y2="145.343" gradientUnits="userSpaceOnUse"><stop offset=".1" stop-color="#E9C156"/><stop offset=".3" stop-color="#FFA"/><stop offset=".6" stop-color="#E1AB39"/><stop offset="1" stop-color="#E9C156"/></linearGradient><linearGradient id="ab" x1="234.411" x2="234.411" y1="288.137" y2="289.002" gradientUnits="userSpaceOnUse"><stop offset=".1" stop-color="#E9C156"/><stop offset=".3" stop-color="#FFA"/><stop offset=".6" stop-color="#E1AB39"/><stop offset="1" stop-color="#E9C156"/></linearGradient></defs></svg>